<svg xmlns="http://www.w3.org/2000/svg" xmlns:xlink="http://www.w3.org/1999/xlink" width="500" zoomAndPan="magnify" viewBox="0 0 375 374.999991" height="500" preserveAspectRatio="xMidYMid meet" version="1.0"><defs><g/><clipPath id="92fc1fe131"><path d="M 115 65 L 262 65 L 262 211.789062 L 115 211.789062 Z M 115 65 " clip-rule="nonzero"/></clipPath><clipPath id="e112b376e8"><path d="M 76.152344 111.710938 L 128.652344 111.710938 L 128.652344 153 L 76.152344 153 Z M 76.152344 111.710938 " clip-rule="nonzero"/></clipPath></defs><rect x="-37.5" width="450" fill="#ffffff" y="-37.499999" height="449.999989" fill-opacity="1"/><rect x="-37.5" width="450" fill="#000000" y="-37.499999" height="449.999989" fill-opacity="1"/><path fill="#ffffff" d="M 178.289062 159.914062 C 178.289062 159.363281 178.339844 158.816406 178.449219 158.277344 C 178.554688 157.738281 178.714844 157.214844 178.925781 156.707031 C 179.136719 156.199219 179.394531 155.71875 179.699219 155.261719 C 180.003906 154.800781 180.351562 154.378906 180.742188 153.992188 C 181.128906 153.601562 181.550781 153.253906 182.011719 152.949219 C 182.46875 152.644531 182.949219 152.386719 183.457031 152.175781 C 183.964844 151.964844 184.488281 151.804688 185.027344 151.699219 C 185.570312 151.589844 186.113281 151.539062 186.664062 151.539062 C 187.214844 151.539062 187.757812 151.589844 188.296875 151.699219 C 188.835938 151.804688 189.359375 151.964844 189.867188 152.175781 C 190.375 152.386719 190.859375 152.644531 191.316406 152.949219 C 191.773438 153.253906 192.195312 153.601562 192.585938 153.992188 C 192.972656 154.378906 193.320312 154.800781 193.625 155.261719 C 193.933594 155.71875 194.191406 156.199219 194.402344 156.707031 C 194.609375 157.214844 194.769531 157.738281 194.878906 158.277344 C 194.984375 158.816406 195.039062 159.363281 195.039062 159.914062 C 195.039062 160.460938 194.984375 161.007812 194.878906 161.546875 C 194.769531 162.085938 194.609375 162.609375 194.402344 163.117188 C 194.191406 163.625 193.933594 164.109375 193.625 164.566406 C 193.320312 165.023438 192.972656 165.445312 192.585938 165.835938 C 192.195312 166.222656 191.773438 166.570312 191.316406 166.875 C 190.859375 167.183594 190.375 167.441406 189.867188 167.652344 C 189.359375 167.859375 188.835938 168.019531 188.296875 168.128906 C 187.757812 168.234375 187.210938 168.289062 186.664062 168.289062 C 186.113281 168.289062 185.570312 168.234375 185.027344 168.128906 C 184.488281 168.019531 183.964844 167.859375 183.457031 167.652344 C 182.949219 167.441406 182.46875 167.183594 182.011719 166.875 C 181.550781 166.570312 181.128906 166.222656 180.742188 165.835938 C 180.351562 165.445312 180.003906 165.023438 179.699219 164.566406 C 179.394531 164.109375 179.136719 163.625 178.925781 163.117188 C 178.714844 162.609375 178.554688 162.085938 178.449219 161.546875 C 178.339844 161.007812 178.289062 160.460938 178.289062 159.914062 Z M 192.339844 174.246094 C 192.339844 175.589844 192.726562 176.804688 193.503906 177.898438 C 193.511719 177.90625 193.519531 177.914062 193.523438 177.921875 C 193.683594 178.144531 193.855469 178.355469 194.042969 178.554688 C 194.050781 178.5625 194.054688 178.570312 194.0625 178.578125 C 194.152344 178.667969 194.242188 178.757812 194.332031 178.84375 C 194.339844 178.851562 194.347656 178.859375 194.355469 178.867188 C 194.550781 179.050781 194.757812 179.21875 194.972656 179.375 C 194.992188 179.386719 195.007812 179.398438 195.027344 179.410156 C 195.128906 179.484375 195.234375 179.554688 195.34375 179.621094 L 195.355469 179.628906 C 195.46875 179.699219 195.582031 179.765625 195.699219 179.828125 C 195.71875 179.835938 195.738281 179.847656 195.757812 179.855469 C 195.855469 179.90625 195.957031 179.957031 196.058594 180 C 196.082031 180.011719 196.105469 180.023438 196.132812 180.035156 C 196.253906 180.085938 196.375 180.136719 196.496094 180.183594 L 196.511719 180.1875 C 196.628906 180.230469 196.746094 180.265625 196.863281 180.300781 C 196.898438 180.3125 196.929688 180.320312 196.960938 180.328125 C 197.066406 180.359375 197.171875 180.386719 197.277344 180.410156 C 197.300781 180.414062 197.324219 180.421875 197.347656 180.425781 C 197.476562 180.453125 197.605469 180.476562 197.734375 180.492188 C 197.765625 180.5 197.792969 180.5 197.824219 180.503906 C 197.929688 180.519531 198.03125 180.53125 198.136719 180.539062 C 198.175781 180.542969 198.210938 180.542969 198.25 180.546875 C 198.382812 180.554688 198.515625 180.5625 198.652344 180.5625 C 198.785156 180.5625 198.917969 180.554688 199.050781 180.546875 C 199.085938 180.546875 199.125 180.542969 199.164062 180.539062 C 199.261719 180.53125 199.363281 180.519531 199.460938 180.507812 C 199.496094 180.503906 199.53125 180.5 199.5625 180.496094 C 199.691406 180.476562 199.816406 180.453125 199.941406 180.429688 C 199.964844 180.425781 199.984375 180.417969 200.003906 180.414062 C 200.109375 180.390625 200.214844 180.363281 200.320312 180.335938 C 200.355469 180.324219 200.390625 180.316406 200.425781 180.304688 C 200.527344 180.277344 200.625 180.246094 200.726562 180.210938 C 200.746094 180.203125 200.769531 180.195312 200.792969 180.1875 C 200.910156 180.144531 201.03125 180.097656 201.144531 180.046875 C 201.171875 180.035156 201.195312 180.023438 201.21875 180.015625 C 201.3125 179.972656 201.40625 179.925781 201.496094 179.878906 C 201.527344 179.867188 201.554688 179.851562 201.582031 179.835938 C 201.691406 179.78125 201.800781 179.71875 201.90625 179.65625 L 201.910156 179.652344 C 202.019531 179.585938 202.128906 179.515625 202.234375 179.441406 C 202.257812 179.425781 202.277344 179.410156 202.300781 179.394531 C 202.386719 179.335938 202.46875 179.269531 202.554688 179.207031 C 202.574219 179.191406 202.59375 179.175781 202.613281 179.160156 C 202.8125 178.996094 203 178.824219 203.179688 178.640625 C 203.199219 178.621094 203.214844 178.605469 203.234375 178.585938 C 203.3125 178.503906 203.386719 178.417969 203.460938 178.332031 C 203.46875 178.320312 203.480469 178.308594 203.488281 178.296875 C 203.574219 178.199219 203.65625 178.09375 203.734375 177.988281 C 203.738281 177.980469 203.746094 177.96875 203.753906 177.960938 C 203.820312 177.867188 203.890625 177.769531 203.953125 177.671875 C 203.964844 177.648438 203.980469 177.628906 203.992188 177.609375 C 204.058594 177.5 204.125 177.390625 204.1875 177.28125 C 204.417969 176.859375 204.597656 176.414062 204.730469 175.953125 C 204.859375 175.488281 204.933594 175.015625 204.957031 174.535156 C 204.980469 174.054688 204.945312 173.578125 204.859375 173.105469 C 204.773438 172.632812 204.632812 172.175781 204.441406 171.734375 C 204.25 171.292969 204.011719 170.878906 203.726562 170.492188 C 203.4375 170.105469 203.113281 169.753906 202.746094 169.441406 C 202.378906 169.132812 201.984375 168.863281 201.554688 168.644531 C 201.128906 168.421875 200.683594 168.25 200.214844 168.132812 C 199.75 168.011719 199.277344 167.949219 198.796875 167.9375 C 198.316406 167.925781 197.839844 167.96875 197.367188 168.066406 C 196.898438 168.164062 196.441406 168.3125 196.003906 168.515625 C 195.570312 168.71875 195.160156 168.964844 194.78125 169.261719 C 194.402344 169.554688 194.058594 169.890625 193.753906 170.261719 C 193.453125 170.636719 193.195312 171.039062 192.980469 171.472656 C 192.769531 171.902344 192.609375 172.355469 192.503906 172.824219 C 192.394531 173.292969 192.339844 173.765625 192.339844 174.246094 Z M 170.148438 178.691406 C 170.121094 178.78125 170.09375 178.875 170.066406 178.96875 C 170.042969 179.050781 170.019531 179.132812 170.003906 179.214844 C 169.984375 179.296875 169.964844 179.375 169.949219 179.457031 C 169.929688 179.566406 169.914062 179.675781 169.898438 179.785156 C 169.890625 179.847656 169.882812 179.914062 169.875 179.976562 C 169.859375 180.15625 169.847656 180.335938 169.847656 180.519531 C 169.847656 180.898438 169.886719 181.273438 169.957031 181.644531 C 170.03125 182.015625 170.140625 182.375 170.285156 182.726562 C 170.433594 183.078125 170.609375 183.410156 170.820312 183.722656 C 171.03125 184.039062 171.269531 184.332031 171.539062 184.597656 C 171.804688 184.867188 172.097656 185.105469 172.410156 185.316406 C 172.726562 185.527344 173.058594 185.703125 173.410156 185.847656 C 173.757812 185.992188 174.121094 186.101562 174.492188 186.175781 C 174.863281 186.25 175.238281 186.289062 175.617188 186.289062 C 175.996094 186.289062 176.371094 186.25 176.742188 186.175781 C 177.113281 186.101562 177.476562 185.992188 177.824219 185.847656 C 178.175781 185.703125 178.507812 185.527344 178.820312 185.316406 C 179.136719 185.105469 179.429688 184.867188 179.695312 184.597656 C 179.964844 184.332031 180.203125 184.039062 180.414062 183.722656 C 180.625 183.410156 180.800781 183.078125 180.945312 182.726562 C 181.09375 182.375 181.203125 182.015625 181.273438 181.644531 C 181.347656 181.273438 181.386719 180.898438 181.386719 180.519531 C 181.386719 180.339844 181.375 180.160156 181.359375 179.984375 C 181.351562 179.917969 181.34375 179.855469 181.335938 179.792969 C 181.320312 179.683594 181.304688 179.574219 181.285156 179.46875 C 181.269531 179.386719 181.253906 179.308594 181.234375 179.230469 C 181.214844 179.148438 181.195312 179.066406 181.171875 178.984375 C 181.148438 178.890625 181.121094 178.800781 181.089844 178.710938 C 181.074219 178.664062 181.058594 178.621094 181.042969 178.574219 C 180.851562 178.039062 180.585938 177.546875 180.246094 177.089844 C 179.980469 176.730469 179.679688 176.40625 179.335938 176.117188 C 178.996094 175.828125 178.628906 175.582031 178.230469 175.378906 C 177.832031 175.175781 177.417969 175.019531 176.984375 174.914062 C 176.550781 174.808594 176.109375 174.753906 175.664062 174.75 C 175.214844 174.746094 174.773438 174.792969 174.339844 174.894531 C 173.902344 174.992188 173.484375 175.140625 173.085938 175.335938 C 172.683594 175.535156 172.3125 175.773438 171.964844 176.058594 C 171.621094 176.34375 171.3125 176.660156 171.042969 177.015625 C 170.691406 177.476562 170.414062 177.980469 170.210938 178.523438 C 170.191406 178.578125 170.167969 178.632812 170.148438 178.691406 Z M 221.824219 190.335938 L 212.792969 178.3125 C 212.308594 177.664062 211.660156 177.339844 210.851562 177.332031 L 208.640625 177.316406 C 208.476562 177.847656 208.269531 178.367188 208.023438 178.867188 C 207.777344 179.367188 207.492188 179.847656 207.167969 180.300781 C 206.84375 180.757812 206.484375 181.183594 206.09375 181.582031 C 205.703125 181.980469 205.28125 182.34375 204.828125 182.675781 C 204.378906 183.003906 203.90625 183.296875 203.40625 183.550781 C 202.910156 183.804688 202.394531 184.019531 201.863281 184.191406 C 201.332031 184.363281 200.789062 184.492188 200.238281 184.574219 C 199.683594 184.660156 199.128906 184.699219 198.570312 184.695312 C 198.011719 184.691406 197.457031 184.640625 196.90625 184.550781 C 196.355469 184.457031 195.816406 184.320312 195.285156 184.140625 C 194.757812 183.957031 194.246094 183.738281 193.753906 183.476562 C 193.257812 183.214844 192.789062 182.914062 192.34375 182.574219 C 191.898438 182.238281 191.484375 181.867188 191.097656 181.464844 C 190.710938 181.058594 190.359375 180.628906 190.042969 180.167969 C 189.726562 179.707031 189.449219 179.222656 189.210938 178.71875 C 188.972656 178.214844 188.773438 177.691406 188.621094 177.15625 L 184.921875 177.128906 C 185.058594 177.5 185.171875 177.882812 185.265625 178.269531 C 185.355469 178.660156 185.421875 179.050781 185.464844 179.445312 C 185.507812 179.84375 185.527344 180.242188 185.523438 180.640625 C 185.519531 181.039062 185.488281 181.433594 185.4375 181.828125 C 185.386719 182.222656 185.308594 182.613281 185.210938 183 C 185.109375 183.386719 184.988281 183.765625 184.84375 184.136719 C 184.695312 184.507812 184.53125 184.867188 184.339844 185.21875 C 184.152344 185.570312 183.941406 185.910156 183.714844 186.234375 C 183.484375 186.558594 183.234375 186.871094 182.96875 187.167969 C 182.699219 187.460938 182.417969 187.742188 182.117188 188 C 181.816406 188.261719 181.5 188.503906 181.167969 188.730469 C 180.839844 188.953125 180.496094 189.15625 180.140625 189.335938 C 179.789062 189.519531 179.421875 189.679688 179.050781 189.816406 C 178.675781 189.957031 178.296875 190.070312 177.90625 190.164062 C 177.519531 190.253906 177.128906 190.324219 176.730469 190.367188 C 176.335938 190.414062 175.9375 190.433594 175.539062 190.429688 C 175.140625 190.425781 174.746094 190.398438 174.347656 190.347656 C 173.953125 190.296875 173.5625 190.222656 173.175781 190.125 C 172.789062 190.027344 172.410156 189.90625 172.039062 189.761719 C 171.667969 189.617188 171.308594 189.453125 170.957031 189.265625 C 170.605469 189.078125 170.265625 188.867188 169.9375 188.640625 C 169.613281 188.410156 169.300781 188.164062 169.003906 187.898438 C 168.707031 187.632812 168.425781 187.347656 168.164062 187.050781 C 167.902344 186.75 167.660156 186.433594 167.433594 186.105469 C 167.210938 185.777344 167.007812 185.433594 166.824219 185.082031 C 166.640625 184.726562 166.476562 184.363281 166.339844 183.988281 C 166.199219 183.617188 166.082031 183.234375 165.988281 182.847656 C 165.894531 182.460938 165.828125 182.070312 165.78125 181.671875 C 165.734375 181.277344 165.710938 180.878906 165.714844 180.480469 C 165.714844 180.082031 165.742188 179.6875 165.789062 179.292969 C 165.839844 178.894531 165.914062 178.503906 166.011719 178.117188 C 166.105469 177.730469 166.226562 177.351562 166.371094 176.980469 L 166.222656 176.980469 C 165.832031 176.976562 165.460938 177.0625 165.113281 177.234375 C 164.765625 177.40625 164.472656 177.648438 164.238281 177.960938 L 154.945312 190.335938 C 152.257812 193.910156 155.4375 198.484375 160.605469 198.484375 L 216.164062 198.484375 C 221.328125 198.484375 224.507812 193.910156 221.824219 190.335938 Z M 221.824219 190.335938 " fill-opacity="1" fill-rule="nonzero"/><g clip-path="url(#92fc1fe131)"><path fill="#47a9f2" d="M 245.683594 162.835938 C 245.855469 162.089844 245.988281 161.335938 246.078125 160.574219 C 246.167969 159.816406 246.210938 159.050781 246.214844 158.285156 C 246.21875 157.519531 246.179688 156.753906 246.097656 155.992188 C 246.011719 155.230469 245.886719 154.472656 245.71875 153.726562 C 245.550781 152.980469 245.34375 152.242188 245.09375 151.519531 C 244.839844 150.792969 244.550781 150.085938 244.21875 149.394531 C 243.890625 148.703125 243.523438 148.03125 243.117188 147.382812 C 242.710938 146.730469 242.269531 146.105469 241.792969 145.503906 C 241.316406 144.90625 240.808594 144.332031 240.265625 143.789062 C 239.726562 143.246094 239.15625 142.734375 238.558594 142.253906 C 237.960938 141.777344 237.335938 141.332031 236.6875 140.921875 C 236.042969 140.515625 235.371094 140.140625 234.683594 139.808594 C 233.992188 139.476562 233.285156 139.179688 232.5625 138.925781 C 231.839844 138.671875 231.105469 138.460938 230.359375 138.289062 C 229.609375 138.117188 228.855469 137.988281 228.09375 137.898438 C 227.332031 137.8125 226.570312 137.769531 225.800781 137.769531 C 225.535156 137.769531 225.265625 137.773438 225 137.785156 C 224.625 135.949219 224.003906 134.207031 223.128906 132.550781 C 222.253906 130.894531 221.164062 129.394531 219.859375 128.050781 C 220.835938 127.257812 221.742188 126.394531 222.585938 125.460938 C 223.425781 124.527344 224.191406 123.535156 224.878906 122.484375 C 225.566406 121.433594 226.171875 120.335938 226.691406 119.191406 C 227.210938 118.046875 227.640625 116.867188 227.980469 115.65625 C 228.316406 114.445312 228.5625 113.21875 228.710938 111.96875 C 228.859375 110.722656 228.914062 109.46875 228.867188 108.214844 C 228.824219 106.957031 228.6875 105.710938 228.449219 104.476562 C 228.214844 103.242188 227.886719 102.03125 227.464844 100.847656 C 227.042969 99.664062 226.535156 98.519531 225.9375 97.414062 C 225.339844 96.308594 224.660156 95.253906 223.902344 94.253906 C 223.140625 93.253906 222.308594 92.316406 221.40625 91.441406 C 220.5 90.570312 219.535156 89.769531 218.507812 89.046875 C 217.480469 88.320312 216.40625 87.679688 215.277344 87.121094 C 214.152344 86.5625 212.992188 86.09375 211.792969 85.710938 C 210.59375 85.332031 209.375 85.046875 208.132812 84.855469 C 206.890625 84.660156 205.640625 84.566406 204.382812 84.566406 C 202.773438 84.566406 201.179688 84.726562 199.597656 85.046875 C 199.332031 84 198.980469 82.984375 198.546875 81.996094 C 198.113281 81.007812 197.597656 80.058594 197.007812 79.15625 C 196.414062 78.253906 195.753906 77.402344 195.019531 76.609375 C 194.289062 75.816406 193.496094 75.085938 192.644531 74.421875 C 191.792969 73.761719 190.890625 73.171875 189.941406 72.65625 C 188.988281 72.144531 188.003906 71.710938 186.980469 71.359375 C 185.960938 71.007812 184.917969 70.746094 183.851562 70.566406 C 182.785156 70.390625 181.714844 70.300781 180.632812 70.300781 C 177.582031 70.292969 174.695312 70.96875 171.964844 72.328125 C 171.507812 71.636719 170.996094 70.984375 170.433594 70.375 C 169.871094 69.765625 169.265625 69.203125 168.613281 68.6875 C 167.960938 68.175781 167.273438 67.71875 166.546875 67.316406 C 165.820312 66.914062 165.070312 66.570312 164.289062 66.289062 C 163.507812 66.003906 162.710938 65.785156 161.894531 65.632812 C 161.078125 65.476562 160.257812 65.390625 159.425781 65.367188 C 158.597656 65.34375 157.773438 65.386719 156.949219 65.496094 C 156.125 65.605469 155.316406 65.78125 154.523438 66.019531 C 153.730469 66.261719 152.957031 66.5625 152.210938 66.921875 C 151.464844 67.285156 150.753906 67.707031 150.074219 68.183594 C 149.394531 68.660156 148.757812 69.1875 148.164062 69.765625 C 147.570312 70.34375 147.023438 70.96875 146.527344 71.632812 C 146.035156 72.300781 145.59375 73 145.210938 73.738281 C 144.832031 74.476562 144.507812 75.238281 144.25 76.023438 C 143.988281 76.8125 143.792969 77.617188 143.660156 78.4375 C 143.527344 79.253906 143.464844 80.078125 143.464844 80.910156 C 143.457031 82.511719 143.699219 84.078125 144.183594 85.605469 C 144.667969 87.132812 145.371094 88.550781 146.300781 89.859375 C 145.644531 90.730469 145.066406 91.648438 144.558594 92.609375 C 144.050781 93.574219 143.625 94.574219 143.277344 95.605469 C 142.929688 96.636719 142.667969 97.691406 142.488281 98.765625 C 142.3125 99.839844 142.21875 100.921875 142.214844 102.011719 C 142.207031 103.101562 142.289062 104.183594 142.457031 105.257812 C 142.625 106.335938 142.875 107.390625 143.214844 108.425781 C 143.550781 109.460938 143.96875 110.464844 144.464844 111.433594 C 144.960938 112.402344 145.53125 113.324219 146.175781 114.203125 C 146.820312 115.082031 147.53125 115.902344 148.308594 116.667969 C 149.085938 117.429688 149.917969 118.128906 150.804688 118.757812 C 151.691406 119.390625 152.625 119.945312 153.601562 120.425781 C 154.578125 120.910156 155.585938 121.308594 156.628906 121.628906 C 157.667969 121.949219 158.730469 122.183594 159.808594 122.335938 C 160.886719 122.488281 161.96875 122.550781 163.058594 122.527344 C 164.148438 122.503906 165.226562 122.394531 166.300781 122.199219 C 167.371094 122.003906 168.417969 121.726562 169.445312 121.363281 C 170.136719 122.425781 170.996094 123.324219 172.03125 124.0625 C 173.0625 124.796875 174.195312 125.316406 175.425781 125.621094 L 175.425781 140.554688 C 175.425781 141.304688 175.203125 141.976562 174.753906 142.574219 L 138.738281 190.523438 C 135.847656 194.375 135.382812 199.199219 137.496094 203.429688 C 139.941406 208.328125 145.226562 211.371094 151.285156 211.371094 L 225.734375 211.371094 C 228.183594 211.382812 230.523438 210.882812 232.753906 209.871094 C 233.496094 210.003906 234.242188 210.101562 234.996094 210.164062 C 235.75 210.226562 236.5 210.253906 237.257812 210.246094 C 238.011719 210.242188 238.765625 210.199219 239.515625 210.121094 C 240.265625 210.046875 241.011719 209.933594 241.753906 209.789062 C 242.492188 209.644531 243.226562 209.464844 243.949219 209.253906 C 244.675781 209.039062 245.386719 208.792969 246.089844 208.515625 C 246.789062 208.234375 247.476562 207.925781 248.152344 207.582031 C 248.824219 207.238281 249.480469 206.867188 250.117188 206.464844 C 250.753906 206.058594 251.375 205.628906 251.972656 205.167969 C 252.570312 204.707031 253.144531 204.222656 253.699219 203.707031 C 254.253906 203.195312 254.78125 202.65625 255.285156 202.09375 C 255.789062 201.53125 256.265625 200.945312 256.714844 200.339844 C 257.164062 199.734375 257.585938 199.109375 257.976562 198.460938 C 258.367188 197.816406 258.730469 197.15625 259.058594 196.476562 C 259.390625 195.796875 259.6875 195.105469 259.953125 194.398438 C 260.222656 193.691406 260.453125 192.976562 260.65625 192.246094 C 260.855469 191.519531 261.019531 190.785156 261.152344 190.039062 C 261.285156 189.296875 261.382812 188.550781 261.445312 187.796875 C 261.507812 187.046875 261.535156 186.292969 261.53125 185.535156 C 261.523438 184.78125 261.480469 184.027344 261.40625 183.277344 C 261.328125 182.527344 261.21875 181.78125 261.074219 181.039062 C 260.925781 180.300781 260.75 179.566406 260.535156 178.84375 C 260.320312 178.117188 260.074219 177.40625 259.796875 176.703125 C 259.519531 176.003906 259.207031 175.316406 258.863281 174.640625 C 258.523438 173.96875 258.148438 173.3125 257.746094 172.675781 C 257.34375 172.039062 256.910156 171.417969 256.453125 170.820312 C 255.992188 170.222656 255.503906 169.648438 254.992188 169.09375 C 254.476562 168.539062 253.941406 168.011719 253.378906 167.507812 C 252.816406 167.003906 252.230469 166.527344 251.625 166.078125 C 251.015625 165.628906 250.390625 165.207031 249.746094 164.816406 C 249.101562 164.425781 248.4375 164.0625 247.761719 163.734375 C 247.082031 163.402344 246.390625 163.105469 245.683594 162.835938 Z M 179.226562 110.355469 C 178.839844 110.355469 178.457031 110.320312 178.078125 110.242188 C 177.699219 110.167969 177.332031 110.054688 176.976562 109.910156 C 176.617188 109.761719 176.28125 109.578125 175.957031 109.363281 C 175.636719 109.148438 175.339844 108.90625 175.066406 108.632812 C 174.792969 108.359375 174.550781 108.0625 174.335938 107.742188 C 174.121094 107.421875 173.9375 107.082031 173.792969 106.722656 C 173.644531 106.367188 173.53125 106 173.457031 105.621094 C 173.382812 105.242188 173.34375 104.859375 173.34375 104.472656 C 173.34375 104.085938 173.382812 103.703125 173.457031 103.324219 C 173.53125 102.945312 173.644531 102.578125 173.792969 102.222656 C 173.941406 101.863281 174.121094 101.527344 174.335938 101.203125 C 174.550781 100.882812 174.792969 100.585938 175.066406 100.3125 C 175.339844 100.039062 175.636719 99.796875 175.957031 99.582031 C 176.28125 99.367188 176.617188 99.1875 176.976562 99.039062 C 177.332031 98.890625 177.699219 98.777344 178.078125 98.703125 C 178.457031 98.628906 178.839844 98.589844 179.226562 98.589844 C 179.613281 98.589844 179.996094 98.628906 180.375 98.703125 C 180.753906 98.777344 181.121094 98.890625 181.480469 99.039062 C 181.835938 99.1875 182.175781 99.367188 182.496094 99.582031 C 182.816406 99.796875 183.113281 100.039062 183.386719 100.3125 C 183.660156 100.585938 183.902344 100.882812 184.117188 101.203125 C 184.332031 101.527344 184.515625 101.863281 184.664062 102.222656 C 184.808594 102.578125 184.921875 102.945312 184.996094 103.324219 C 185.074219 103.703125 185.109375 104.085938 185.109375 104.472656 C 185.109375 104.859375 185.070312 105.242188 184.996094 105.621094 C 184.921875 106 184.808594 106.367188 184.660156 106.722656 C 184.511719 107.082031 184.332031 107.417969 184.117188 107.742188 C 183.902344 108.0625 183.65625 108.359375 183.386719 108.632812 C 183.113281 108.90625 182.816406 109.148438 182.492188 109.363281 C 182.171875 109.578125 181.832031 109.757812 181.476562 109.90625 C 181.121094 110.054688 180.753906 110.167969 180.375 110.242188 C 179.996094 110.316406 179.613281 110.355469 179.226562 110.355469 Z M 225.734375 205.167969 L 151.285156 205.167969 C 144.359375 205.167969 140.101562 199.035156 143.699219 194.246094 L 175.425781 152.003906 L 180.382812 145.40625 C 181.214844 144.300781 181.628906 143.054688 181.628906 141.667969 L 181.628906 122.804688 C 181.628906 122.390625 181.550781 121.996094 181.394531 121.617188 C 181.234375 121.234375 181.011719 120.902344 180.722656 120.609375 C 180.429688 120.320312 180.09375 120.09375 179.714844 119.9375 C 179.335938 119.78125 178.9375 119.703125 178.527344 119.703125 L 177.902344 119.703125 C 177.414062 119.707031 176.945312 119.621094 176.488281 119.445312 C 176.035156 119.273438 175.628906 119.019531 175.269531 118.6875 C 174.914062 118.359375 174.628906 117.972656 174.417969 117.535156 C 174.210938 117.09375 174.085938 116.632812 174.054688 116.148438 C 174.042969 115.902344 174.054688 115.65625 174.09375 115.410156 C 174.691406 115.695312 175.3125 115.925781 175.949219 116.105469 C 176.589844 116.285156 177.238281 116.414062 177.894531 116.484375 C 178.554688 116.558594 179.214844 116.578125 179.878906 116.542969 C 180.539062 116.507812 181.195312 116.417969 181.839844 116.273438 C 182.488281 116.128906 183.121094 115.933594 183.734375 115.6875 C 184.351562 115.4375 184.941406 115.140625 185.507812 114.796875 C 186.074219 114.453125 186.609375 114.0625 187.109375 113.628906 C 187.613281 113.195312 188.074219 112.722656 188.5 112.214844 L 198.867188 112.214844 C 199.351562 112.210938 199.824219 112.292969 200.277344 112.46875 C 200.730469 112.644531 201.136719 112.898438 201.496094 113.226562 C 201.855469 113.558594 202.136719 113.941406 202.347656 114.382812 C 202.558594 114.820312 202.679688 115.285156 202.714844 115.769531 C 202.726562 116.023438 202.710938 116.273438 202.675781 116.527344 C 202.636719 116.777344 202.570312 117.019531 202.484375 117.257812 C 202.394531 117.496094 202.285156 117.722656 202.148438 117.9375 C 202.015625 118.152344 201.859375 118.351562 201.6875 118.535156 C 201.511719 118.71875 201.320312 118.882812 201.113281 119.03125 C 200.902344 119.175781 200.683594 119.296875 200.449219 119.398438 C 200.21875 119.496094 199.976562 119.574219 199.726562 119.625 C 199.480469 119.675781 199.226562 119.703125 198.972656 119.703125 L 198.140625 119.703125 C 197.726562 119.703125 197.332031 119.78125 196.953125 119.9375 C 196.574219 120.09375 196.238281 120.320312 195.945312 120.609375 C 195.65625 120.902344 195.433594 121.234375 195.273438 121.617188 C 195.117188 121.996094 195.039062 122.390625 195.039062 122.804688 L 195.039062 141.203125 C 195.039062 142.585938 195.453125 143.832031 196.285156 144.941406 L 201.242188 151.539062 L 233.320312 194.246094 C 236.917969 199.035156 232.65625 205.167969 225.734375 205.167969 Z M 239.273438 203.90625 C 239.359375 203.75 239.441406 203.589844 239.523438 203.429688 C 241.636719 199.199219 241.171875 194.375 238.28125 190.523438 L 201.914062 142.105469 C 201.464844 141.507812 201.242188 140.835938 201.242188 140.089844 L 201.242188 125.644531 C 201.792969 125.511719 202.332031 125.335938 202.855469 125.113281 C 203.378906 124.890625 203.882812 124.625 204.359375 124.316406 C 204.835938 124.007812 205.285156 123.664062 205.703125 123.277344 C 206.125 122.890625 206.507812 122.472656 206.851562 122.023438 C 207.199219 121.570312 207.507812 121.09375 207.773438 120.589844 C 208.035156 120.089844 208.257812 119.566406 208.433594 119.023438 C 208.609375 118.484375 208.738281 117.929688 208.820312 117.367188 C 208.898438 116.804688 208.933594 116.238281 208.917969 115.671875 C 208.761719 110.257812 204.195312 106.011719 198.78125 106.011719 L 191.210938 106.011719 C 191.273438 105.53125 191.308594 105.046875 191.3125 104.5625 C 191.316406 104.074219 191.289062 103.589844 191.234375 103.109375 C 191.179688 102.625 191.097656 102.148438 190.984375 101.675781 C 190.875 101.203125 190.734375 100.738281 190.566406 100.285156 C 190.398438 99.828125 190.203125 99.382812 189.980469 98.953125 C 189.761719 98.519531 189.515625 98.101562 189.242188 97.699219 C 188.96875 97.296875 188.675781 96.914062 188.355469 96.546875 C 188.039062 96.179688 187.699219 95.832031 187.339844 95.507812 C 186.980469 95.179688 186.601562 94.878906 186.207031 94.597656 C 185.808594 94.316406 185.398438 94.0625 184.96875 93.832031 C 184.542969 93.597656 184.105469 93.394531 183.652344 93.21875 C 183.199219 93.039062 182.738281 92.890625 182.269531 92.765625 C 181.800781 92.644531 181.324219 92.550781 180.84375 92.484375 C 180.359375 92.421875 179.878906 92.386719 179.390625 92.378906 C 178.90625 92.371094 178.421875 92.394531 177.9375 92.445312 C 177.457031 92.5 176.976562 92.578125 176.503906 92.6875 C 176.03125 92.796875 175.566406 92.933594 175.109375 93.101562 C 174.652344 93.265625 174.210938 93.457031 173.777344 93.675781 C 173.34375 93.894531 172.921875 94.140625 172.519531 94.410156 C 172.117188 94.679688 171.730469 94.972656 171.359375 95.289062 C 170.992188 95.605469 170.644531 95.941406 170.316406 96.300781 C 169.988281 96.65625 169.683594 97.035156 169.398438 97.429688 C 169.117188 97.824219 168.859375 98.234375 168.625 98.660156 C 168.390625 99.085938 168.1875 99.523438 168.003906 99.976562 C 167.824219 100.425781 167.671875 100.886719 167.546875 101.355469 C 167.421875 101.824219 167.328125 102.300781 167.257812 102.78125 C 167.191406 103.261719 167.152344 103.746094 167.144531 104.230469 C 167.132812 104.714844 167.152344 105.199219 167.203125 105.683594 C 167.253906 106.167969 167.328125 106.644531 167.4375 107.117188 C 167.542969 107.59375 167.679688 108.058594 167.839844 108.515625 C 168.003906 108.972656 168.195312 109.417969 168.410156 109.851562 C 168.625 110.289062 168.867188 110.707031 169.136719 111.113281 C 168.386719 112.417969 167.964844 113.824219 167.871094 115.324219 C 167.117188 115.625 166.339844 115.859375 165.546875 116.023438 C 164.753906 116.191406 163.949219 116.289062 163.140625 116.320312 C 162.328125 116.347656 161.519531 116.308594 160.714844 116.199219 C 159.914062 116.089844 159.125 115.914062 158.347656 115.671875 C 157.574219 115.425781 156.828125 115.117188 156.105469 114.746094 C 155.386719 114.375 154.699219 113.941406 154.054688 113.453125 C 153.40625 112.964844 152.804688 112.421875 152.25 111.832031 C 151.695312 111.238281 151.195312 110.601562 150.75 109.925781 C 150.304688 109.246094 149.917969 108.535156 149.59375 107.792969 C 149.269531 107.046875 149.011719 106.28125 148.820312 105.492188 C 148.628906 104.703125 148.503906 103.90625 148.449219 103.09375 C 148.390625 102.285156 148.40625 101.476562 148.488281 100.671875 C 148.570312 99.863281 148.722656 99.066406 148.941406 98.285156 C 149.160156 97.503906 149.445312 96.75 149.792969 96.015625 C 150.140625 95.28125 150.550781 94.585938 151.015625 93.921875 C 151.484375 93.257812 152.007812 92.640625 152.582031 92.066406 C 152.875 91.773438 153.101562 91.433594 153.257812 91.046875 C 153.417969 90.660156 153.492188 90.261719 153.488281 89.84375 C 153.484375 89.425781 153.402344 89.027344 153.238281 88.644531 C 153.070312 88.261719 152.839844 87.925781 152.539062 87.636719 C 151.867188 86.992188 151.304688 86.261719 150.851562 85.449219 C 150.394531 84.636719 150.070312 83.773438 149.875 82.863281 C 149.679688 81.949219 149.621094 81.03125 149.699219 80.101562 C 149.78125 79.175781 149.996094 78.277344 150.34375 77.414062 C 150.691406 76.546875 151.15625 75.753906 151.746094 75.027344 C 152.332031 74.304688 153.007812 73.683594 153.78125 73.160156 C 154.554688 72.640625 155.386719 72.242188 156.277344 71.96875 C 157.167969 71.699219 158.082031 71.5625 159.011719 71.5625 C 159.976562 71.566406 160.917969 71.714844 161.835938 72.007812 C 162.753906 72.300781 163.605469 72.722656 164.390625 73.277344 C 165.175781 73.835938 165.863281 74.496094 166.445312 75.261719 C 167.027344 76.03125 167.480469 76.867188 167.804688 77.773438 C 167.886719 78.003906 167.996094 78.21875 168.128906 78.421875 C 168.261719 78.625 168.414062 78.8125 168.589844 78.980469 C 168.765625 79.148438 168.960938 79.292969 169.171875 79.414062 C 169.382812 79.535156 169.605469 79.632812 169.835938 79.703125 C 170.070312 79.773438 170.308594 79.8125 170.550781 79.828125 C 170.792969 79.839844 171.035156 79.828125 171.273438 79.78125 C 171.515625 79.738281 171.746094 79.671875 171.96875 79.574219 C 172.191406 79.476562 172.398438 79.351562 172.59375 79.207031 C 173.558594 78.476562 174.605469 77.886719 175.734375 77.441406 C 176.859375 76.992188 178.027344 76.707031 179.230469 76.578125 C 180.4375 76.449219 181.636719 76.484375 182.832031 76.679688 C 184.027344 76.878906 185.175781 77.234375 186.273438 77.746094 C 187.375 78.257812 188.386719 78.90625 189.308594 79.691406 C 190.230469 80.476562 191.03125 81.371094 191.710938 82.375 C 192.386719 83.378906 192.921875 84.457031 193.304688 85.605469 C 193.691406 86.753906 193.914062 87.933594 193.980469 89.144531 C 193.992188 89.386719 194.035156 89.625 194.101562 89.855469 C 194.171875 90.089844 194.265625 90.308594 194.386719 90.519531 C 194.507812 90.730469 194.648438 90.921875 194.816406 91.097656 C 194.980469 91.277344 195.164062 91.429688 195.367188 91.5625 C 195.570312 91.699219 195.785156 91.804688 196.011719 91.886719 C 196.238281 91.972656 196.472656 92.027344 196.714844 92.054688 C 196.953125 92.082031 197.195312 92.085938 197.433594 92.054688 C 197.675781 92.027344 197.910156 91.972656 198.136719 91.890625 C 199.210938 91.5 200.308594 91.210938 201.4375 91.027344 C 202.5625 90.839844 203.695312 90.761719 204.839844 90.789062 C 205.980469 90.816406 207.109375 90.949219 208.226562 91.191406 C 209.34375 91.429688 210.425781 91.769531 211.480469 92.210938 C 212.53125 92.65625 213.535156 93.191406 214.488281 93.820312 C 215.4375 94.453125 216.324219 95.164062 217.144531 95.960938 C 217.960938 96.757812 218.699219 97.621094 219.355469 98.554688 C 220.011719 99.488281 220.578125 100.476562 221.046875 101.515625 C 221.519531 102.558594 221.890625 103.632812 222.160156 104.742188 C 222.429688 105.851562 222.597656 106.976562 222.65625 108.117188 C 222.714844 109.253906 222.667969 110.390625 222.515625 111.523438 C 222.363281 112.65625 222.105469 113.761719 221.746094 114.84375 C 221.382812 115.929688 220.925781 116.96875 220.371094 117.96875 C 219.8125 118.964844 219.171875 119.902344 218.441406 120.777344 C 217.707031 121.65625 216.902344 122.457031 216.019531 123.183594 C 215.140625 123.910156 214.199219 124.546875 213.195312 125.097656 C 212.960938 125.226562 212.746094 125.382812 212.550781 125.570312 C 212.359375 125.753906 212.191406 125.960938 212.050781 126.191406 C 211.910156 126.421875 211.800781 126.664062 211.722656 126.921875 C 211.648438 127.179688 211.605469 127.441406 211.59375 127.710938 C 211.585938 127.980469 211.613281 128.242188 211.671875 128.507812 C 211.730469 128.769531 211.824219 129.019531 211.949219 129.253906 C 212.074219 129.492188 212.226562 129.710938 212.410156 129.910156 C 212.589844 130.105469 212.796875 130.277344 213.019531 130.421875 C 213.941406 131.011719 214.773438 131.699219 215.523438 132.492188 C 216.273438 133.285156 216.917969 134.15625 217.457031 135.105469 C 217.992188 136.054688 218.40625 137.054688 218.699219 138.105469 C 218.992188 139.15625 219.152344 140.226562 219.183594 141.316406 C 219.191406 141.542969 219.21875 141.765625 219.277344 141.984375 C 219.332031 142.207031 219.410156 142.417969 219.511719 142.617188 C 219.613281 142.820312 219.734375 143.011719 219.878906 143.1875 C 220.019531 143.363281 220.179688 143.519531 220.359375 143.660156 C 220.535156 143.800781 220.726562 143.921875 220.929688 144.019531 C 221.136719 144.121094 221.347656 144.195312 221.566406 144.246094 C 221.789062 144.300781 222.011719 144.328125 222.238281 144.332031 C 222.464844 144.335938 222.6875 144.3125 222.910156 144.265625 C 223.425781 144.160156 223.945312 144.082031 224.46875 144.035156 C 224.992188 143.984375 225.519531 143.964844 226.042969 143.972656 C 226.570312 143.984375 227.09375 144.023438 227.617188 144.089844 C 228.136719 144.15625 228.65625 144.253906 229.164062 144.378906 C 229.675781 144.503906 230.179688 144.65625 230.671875 144.835938 C 231.167969 145.015625 231.652344 145.222656 232.121094 145.457031 C 232.59375 145.691406 233.050781 145.953125 233.492188 146.238281 C 233.933594 146.519531 234.359375 146.828125 234.769531 147.160156 C 235.175781 147.492188 235.566406 147.847656 235.933594 148.222656 C 236.300781 148.597656 236.648438 148.992188 236.972656 149.40625 C 237.300781 149.820312 237.601562 150.25 237.878906 150.699219 C 238.15625 151.144531 238.40625 151.605469 238.632812 152.082031 C 238.859375 152.554688 239.058594 153.042969 239.230469 153.539062 C 239.402344 154.035156 239.546875 154.542969 239.664062 155.054688 C 239.777344 155.566406 239.867188 156.085938 239.925781 156.609375 C 239.984375 157.132812 240.011719 157.65625 240.011719 158.183594 C 240.015625 160.09375 239.648438 161.933594 238.90625 163.695312 C 238.816406 163.902344 238.753906 164.121094 238.710938 164.34375 C 238.671875 164.566406 238.65625 164.789062 238.664062 165.015625 C 238.671875 165.242188 238.707031 165.464844 238.761719 165.683594 C 238.820312 165.90625 238.902344 166.113281 239.003906 166.316406 C 239.109375 166.519531 239.230469 166.707031 239.378906 166.878906 C 239.523438 167.054688 239.683594 167.210938 239.863281 167.351562 C 240.042969 167.488281 240.234375 167.605469 240.441406 167.703125 C 240.644531 167.800781 240.859375 167.875 241.078125 167.921875 C 242.121094 168.160156 243.132812 168.484375 244.117188 168.898438 C 245.105469 169.3125 246.046875 169.808594 246.941406 170.386719 C 247.839844 170.964844 248.683594 171.617188 249.464844 172.339844 C 250.25 173.066406 250.964844 173.855469 251.609375 174.707031 C 252.253906 175.558594 252.820312 176.457031 253.308594 177.40625 C 253.796875 178.359375 254.199219 179.34375 254.515625 180.363281 C 254.828125 181.386719 255.054688 182.425781 255.1875 183.484375 C 255.320312 184.546875 255.359375 185.609375 255.304688 186.675781 C 255.25 187.742188 255.105469 188.796875 254.867188 189.835938 C 254.628906 190.878906 254.300781 191.890625 253.886719 192.875 C 253.46875 193.859375 252.972656 194.800781 252.390625 195.695312 C 251.8125 196.59375 251.15625 197.433594 250.429688 198.214844 C 249.703125 198.996094 248.910156 199.707031 248.058594 200.351562 C 247.207031 200.996094 246.304688 201.558594 245.355469 202.046875 C 244.402344 202.53125 243.414062 202.929688 242.394531 203.242188 C 241.375 203.554688 240.332031 203.777344 239.273438 203.90625 Z M 149.039062 155.90625 C 150.058594 155.90625 151.070312 155.804688 152.074219 155.605469 C 153.074219 155.40625 154.046875 155.113281 154.988281 154.722656 C 155.933594 154.332031 156.828125 153.851562 157.675781 153.285156 C 158.527344 152.71875 159.3125 152.074219 160.035156 151.351562 C 160.753906 150.628906 161.398438 149.84375 161.96875 148.996094 C 162.535156 148.144531 163.015625 147.25 163.40625 146.304688 C 163.796875 145.363281 164.089844 144.390625 164.289062 143.390625 C 164.488281 142.386719 164.589844 141.378906 164.589844 140.355469 C 164.589844 139.335938 164.488281 138.324219 164.289062 137.324219 C 164.089844 136.320312 163.796875 135.347656 163.40625 134.40625 C 163.015625 133.460938 162.535156 132.566406 161.96875 131.71875 C 161.398438 130.867188 160.753906 130.082031 160.035156 129.363281 C 159.3125 128.640625 158.527344 127.996094 157.675781 127.429688 C 156.828125 126.859375 155.933594 126.382812 154.988281 125.992188 C 154.046875 125.601562 153.074219 125.304688 152.074219 125.105469 C 151.070312 124.90625 150.058594 124.808594 149.039062 124.808594 C 148.019531 124.808594 147.007812 124.90625 146.003906 125.105469 C 145.003906 125.304688 144.03125 125.601562 143.089844 125.992188 C 142.144531 126.382812 141.25 126.859375 140.402344 127.429688 C 139.550781 127.996094 138.765625 128.640625 138.042969 129.363281 C 137.324219 130.082031 136.679688 130.867188 136.109375 131.71875 C 135.542969 132.566406 135.066406 133.460938 134.675781 134.40625 C 134.28125 135.347656 133.988281 136.320312 133.789062 137.324219 C 133.589844 138.324219 133.492188 139.335938 133.492188 140.355469 C 133.492188 141.375 133.59375 142.386719 133.792969 143.386719 C 133.992188 144.390625 134.289062 145.359375 134.679688 146.304688 C 135.070312 147.246094 135.546875 148.140625 136.117188 148.992188 C 136.683594 149.839844 137.328125 150.625 138.050781 151.34375 C 138.769531 152.066406 139.554688 152.710938 140.40625 153.277344 C 141.253906 153.847656 142.148438 154.324219 143.089844 154.71875 C 144.035156 155.109375 145.007812 155.402344 146.007812 155.601562 C 147.007812 155.804688 148.019531 155.902344 149.039062 155.90625 Z M 149.039062 131.011719 C 149.652344 131.011719 150.261719 131.070312 150.863281 131.191406 C 151.464844 131.308594 152.046875 131.488281 152.617188 131.722656 C 153.183594 131.957031 153.722656 132.246094 154.230469 132.585938 C 154.742188 132.925781 155.214844 133.3125 155.648438 133.746094 C 156.082031 134.179688 156.46875 134.652344 156.808594 135.164062 C 157.152344 135.675781 157.4375 136.210938 157.675781 136.78125 C 157.910156 137.347656 158.085938 137.929688 158.207031 138.53125 C 158.324219 139.136719 158.386719 139.742188 158.386719 140.355469 C 158.386719 140.96875 158.324219 141.578125 158.207031 142.179688 C 158.085938 142.78125 157.910156 143.367188 157.675781 143.933594 C 157.4375 144.5 157.152344 145.039062 156.808594 145.546875 C 156.46875 146.058594 156.082031 146.53125 155.648438 146.964844 C 155.214844 147.398438 154.742188 147.785156 154.230469 148.128906 C 153.722656 148.46875 153.183594 148.757812 152.617188 148.992188 C 152.050781 149.226562 151.464844 149.402344 150.863281 149.523438 C 150.261719 149.644531 149.652344 149.703125 149.039062 149.703125 C 148.425781 149.703125 147.816406 149.644531 147.214844 149.523438 C 146.613281 149.402344 146.03125 149.226562 145.460938 148.992188 C 144.894531 148.757812 144.355469 148.46875 143.847656 148.128906 C 143.335938 147.785156 142.863281 147.398438 142.429688 146.964844 C 141.996094 146.53125 141.609375 146.058594 141.269531 145.546875 C 140.925781 145.039062 140.640625 144.5 140.40625 143.933594 C 140.167969 143.367188 139.992188 142.78125 139.871094 142.179688 C 139.753906 141.578125 139.691406 140.96875 139.691406 140.355469 C 139.695312 139.742188 139.753906 139.136719 139.875 138.535156 C 139.996094 137.933594 140.171875 137.347656 140.40625 136.78125 C 140.640625 136.214844 140.929688 135.675781 141.269531 135.167969 C 141.613281 134.65625 142 134.183594 142.433594 133.75 C 142.867188 133.316406 143.339844 132.929688 143.847656 132.589844 C 144.359375 132.246094 144.898438 131.960938 145.464844 131.722656 C 146.03125 131.488281 146.613281 131.3125 147.214844 131.191406 C 147.816406 131.070312 148.425781 131.011719 149.039062 131.011719 Z M 243.113281 138.382812 C 243.90625 138.382812 244.695312 138.304688 245.472656 138.148438 C 246.25 137.996094 247.007812 137.765625 247.738281 137.460938 C 248.472656 137.15625 249.167969 136.785156 249.828125 136.34375 C 250.488281 135.902344 251.097656 135.402344 251.660156 134.839844 C 252.222656 134.28125 252.722656 133.667969 253.164062 133.011719 C 253.605469 132.351562 253.976562 131.652344 254.28125 130.921875 C 254.582031 130.1875 254.8125 129.429688 254.96875 128.652344 C 255.121094 127.875 255.199219 127.089844 255.199219 126.296875 C 255.199219 125.5 255.121094 124.714844 254.96875 123.9375 C 254.8125 123.160156 254.582031 122.402344 254.28125 121.671875 C 253.976562 120.9375 253.605469 120.242188 253.164062 119.582031 C 252.722656 118.921875 252.222656 118.308594 251.660156 117.75 C 251.097656 117.1875 250.488281 116.6875 249.828125 116.246094 C 249.167969 115.804688 248.472656 115.433594 247.738281 115.128906 C 247.003906 114.824219 246.25 114.597656 245.472656 114.441406 C 244.695312 114.285156 243.90625 114.210938 243.113281 114.210938 C 242.320312 114.210938 241.535156 114.285156 240.757812 114.441406 C 239.976562 114.597656 239.222656 114.824219 238.488281 115.128906 C 237.753906 115.433594 237.058594 115.804688 236.398438 116.246094 C 235.738281 116.6875 235.128906 117.1875 234.566406 117.75 C 234.007812 118.308594 233.503906 118.921875 233.066406 119.582031 C 232.625 120.242188 232.25 120.9375 231.949219 121.667969 C 231.644531 122.402344 231.414062 123.160156 231.261719 123.9375 C 231.105469 124.714844 231.027344 125.5 231.027344 126.296875 C 231.027344 127.089844 231.105469 127.875 231.261719 128.652344 C 231.417969 129.429688 231.648438 130.183594 231.953125 130.917969 C 232.253906 131.652344 232.628906 132.347656 233.070312 133.007812 C 233.507812 133.667969 234.011719 134.277344 234.570312 134.835938 C 235.132812 135.398438 235.742188 135.898438 236.402344 136.339844 C 237.0625 136.78125 237.757812 137.152344 238.492188 137.457031 C 239.222656 137.761719 239.980469 137.992188 240.757812 138.148438 C 241.535156 138.300781 242.320312 138.378906 243.113281 138.382812 Z M 243.113281 120.410156 C 243.5 120.410156 243.882812 120.449219 244.261719 120.523438 C 244.640625 120.601562 245.007812 120.710938 245.367188 120.859375 C 245.722656 121.007812 246.0625 121.1875 246.382812 121.402344 C 246.703125 121.617188 247 121.863281 247.273438 122.136719 C 247.546875 122.410156 247.792969 122.707031 248.007812 123.027344 C 248.21875 123.347656 248.402344 123.6875 248.550781 124.042969 C 248.699219 124.402344 248.808594 124.769531 248.882812 125.148438 C 248.960938 125.527344 248.996094 125.910156 248.996094 126.296875 C 248.996094 126.683594 248.960938 127.0625 248.882812 127.441406 C 248.808594 127.820312 248.699219 128.191406 248.550781 128.546875 C 248.402344 128.902344 248.21875 129.242188 248.003906 129.5625 C 247.792969 129.886719 247.546875 130.183594 247.273438 130.457031 C 247 130.730469 246.703125 130.972656 246.382812 131.1875 C 246.0625 131.402344 245.722656 131.582031 245.363281 131.730469 C 245.007812 131.878906 244.640625 131.992188 244.261719 132.066406 C 243.882812 132.140625 243.5 132.179688 243.113281 132.179688 C 242.726562 132.179688 242.34375 132.140625 241.964844 132.066406 C 241.585938 131.992188 241.21875 131.878906 240.863281 131.730469 C 240.503906 131.582031 240.167969 131.402344 239.84375 131.1875 C 239.523438 130.972656 239.226562 130.726562 238.953125 130.457031 C 238.679688 130.183594 238.4375 129.886719 238.222656 129.5625 C 238.007812 129.242188 237.824219 128.902344 237.679688 128.546875 C 237.53125 128.191406 237.417969 127.820312 237.34375 127.441406 C 237.269531 127.0625 237.230469 126.679688 237.230469 126.296875 C 237.230469 125.910156 237.269531 125.527344 237.34375 125.148438 C 237.421875 124.769531 237.53125 124.402344 237.679688 124.042969 C 237.828125 123.6875 238.007812 123.347656 238.222656 123.027344 C 238.4375 122.707031 238.683594 122.410156 238.957031 122.136719 C 239.230469 121.863281 239.527344 121.621094 239.847656 121.40625 C 240.167969 121.191406 240.507812 121.007812 240.863281 120.859375 C 241.21875 120.714844 241.589844 120.601562 241.964844 120.527344 C 242.34375 120.449219 242.726562 120.414062 243.113281 120.410156 Z M 127.605469 157.695312 C 126.8125 157.695312 126.027344 157.773438 125.25 157.929688 C 124.472656 158.082031 123.714844 158.3125 122.980469 158.617188 C 122.25 158.917969 121.550781 159.292969 120.890625 159.734375 C 120.234375 160.171875 119.621094 160.675781 119.0625 161.234375 C 118.5 161.796875 118 162.40625 117.558594 163.066406 C 117.117188 163.726562 116.746094 164.421875 116.441406 165.15625 C 116.136719 165.890625 115.910156 166.644531 115.753906 167.421875 C 115.597656 168.203125 115.519531 168.988281 115.519531 169.78125 C 115.519531 170.574219 115.597656 171.359375 115.753906 172.140625 C 115.910156 172.917969 116.136719 173.671875 116.441406 174.40625 C 116.746094 175.140625 117.117188 175.835938 117.558594 176.496094 C 118 177.15625 118.5 177.765625 119.0625 178.328125 C 119.621094 178.886719 120.234375 179.390625 120.890625 179.832031 C 121.550781 180.269531 122.25 180.644531 122.980469 180.949219 C 123.714844 181.25 124.472656 181.480469 125.25 181.636719 C 126.027344 181.789062 126.8125 181.867188 127.605469 181.867188 C 128.402344 181.867188 129.1875 181.789062 129.964844 181.636719 C 130.742188 181.480469 131.5 181.25 132.230469 180.949219 C 132.964844 180.644531 133.660156 180.269531 134.320312 179.832031 C 134.980469 179.390625 135.59375 178.886719 136.152344 178.328125 C 136.714844 177.765625 137.214844 177.15625 137.65625 176.496094 C 138.097656 175.835938 138.46875 175.140625 138.773438 174.40625 C 139.078125 173.671875 139.304688 172.917969 139.460938 172.140625 C 139.617188 171.359375 139.691406 170.574219 139.691406 169.78125 C 139.691406 168.988281 139.613281 168.203125 139.457031 167.425781 C 139.304688 166.648438 139.074219 165.890625 138.769531 165.160156 C 138.464844 164.425781 138.09375 163.730469 137.652344 163.070312 C 137.210938 162.410156 136.710938 161.800781 136.148438 161.238281 C 135.589844 160.679688 134.976562 160.175781 134.320312 159.738281 C 133.660156 159.296875 132.960938 158.921875 132.230469 158.621094 C 131.496094 158.316406 130.742188 158.085938 129.964844 157.929688 C 129.1875 157.773438 128.402344 157.695312 127.605469 157.695312 Z M 127.605469 175.664062 C 127.222656 175.664062 126.839844 175.628906 126.460938 175.550781 C 126.082031 175.476562 125.710938 175.363281 125.355469 175.21875 C 125 175.070312 124.660156 174.886719 124.339844 174.671875 C 124.015625 174.457031 123.71875 174.214844 123.445312 173.941406 C 123.175781 173.667969 122.929688 173.371094 122.714844 173.050781 C 122.5 172.730469 122.320312 172.390625 122.171875 172.03125 C 122.023438 171.675781 121.914062 171.308594 121.835938 170.929688 C 121.761719 170.550781 121.722656 170.167969 121.722656 169.78125 C 121.722656 169.394531 121.761719 169.011719 121.835938 168.632812 C 121.914062 168.253906 122.023438 167.886719 122.171875 167.53125 C 122.320312 167.171875 122.5 166.835938 122.714844 166.511719 C 122.929688 166.191406 123.175781 165.894531 123.445312 165.621094 C 123.71875 165.347656 124.015625 165.105469 124.339844 164.890625 C 124.660156 164.675781 125 164.492188 125.355469 164.347656 C 125.710938 164.199219 126.082031 164.085938 126.460938 164.011719 C 126.839844 163.9375 127.222656 163.898438 127.605469 163.898438 C 127.992188 163.898438 128.375 163.9375 128.753906 164.011719 C 129.132812 164.085938 129.5 164.199219 129.859375 164.347656 C 130.214844 164.492188 130.554688 164.675781 130.875 164.890625 C 131.195312 165.105469 131.492188 165.347656 131.765625 165.621094 C 132.039062 165.894531 132.285156 166.191406 132.5 166.511719 C 132.714844 166.835938 132.894531 167.171875 133.042969 167.53125 C 133.191406 167.886719 133.300781 168.253906 133.378906 168.632812 C 133.453125 169.011719 133.492188 169.394531 133.492188 169.78125 C 133.488281 170.167969 133.453125 170.550781 133.375 170.929688 C 133.300781 171.308594 133.1875 171.675781 133.039062 172.03125 C 132.894531 172.386719 132.710938 172.726562 132.496094 173.046875 C 132.28125 173.371094 132.039062 173.667969 131.765625 173.941406 C 131.492188 174.210938 131.195312 174.457031 130.875 174.671875 C 130.554688 174.886719 130.214844 175.066406 129.859375 175.214844 C 129.5 175.363281 129.132812 175.476562 128.753906 175.550781 C 128.375 175.625 127.992188 175.664062 127.605469 175.664062 Z M 127.605469 175.664062 " fill-opacity="1" fill-rule="nonzero"/></g><g clip-path="url(#e112b376e8)"><path fill="#cedfe1" d="M 123.300781 126.191406 C 122.566406 126.191406 121.972656 126.785156 121.972656 127.515625 C 121.972656 128.246094 122.566406 128.839844 123.300781 128.839844 C 124.03125 128.839844 124.625 128.246094 124.625 127.515625 C 124.625 126.785156 124.03125 126.191406 123.300781 126.191406 M 109.792969 112.964844 C 108.152344 112.964844 106.824219 114.292969 106.824219 115.933594 C 106.824219 117.574219 108.152344 118.902344 109.792969 118.902344 C 111.433594 118.902344 112.761719 117.574219 112.761719 115.933594 C 112.761719 114.292969 111.433594 112.964844 109.792969 112.964844 M 82.570312 135.675781 C 81.488281 135.675781 80.609375 136.554688 80.609375 137.636719 C 80.609375 138.722656 81.488281 139.601562 82.570312 139.601562 C 83.65625 139.601562 84.535156 138.722656 84.535156 137.636719 C 84.535156 136.554688 83.65625 135.675781 82.570312 135.675781 M 126.339844 139.972656 C 125.089844 139.972656 124.074219 140.988281 124.074219 142.238281 C 124.074219 143.492188 125.089844 144.503906 126.339844 144.503906 C 127.589844 144.503906 128.605469 143.492188 128.605469 142.238281 C 128.605469 140.988281 127.589844 139.972656 126.339844 139.972656 M 108.175781 130.539062 C 107.726562 130.539062 107.359375 130.902344 107.359375 131.355469 C 107.359375 131.804688 107.726562 132.167969 108.175781 132.167969 C 108.625 132.167969 108.988281 131.804688 108.988281 131.355469 C 108.988281 130.902344 108.625 130.539062 108.175781 130.539062 M 104.808594 131.5 C 104.136719 131.5 103.59375 132.042969 103.59375 132.710938 C 103.59375 133.382812 104.136719 133.925781 104.808594 133.925781 C 105.476562 133.925781 106.023438 133.382812 106.023438 132.710938 C 106.023438 132.042969 105.476562 131.5 104.808594 131.5 M 107.988281 133.484375 C 106.988281 133.484375 106.179688 134.292969 106.179688 135.289062 C 106.179688 136.289062 106.988281 137.097656 107.988281 137.097656 C 108.984375 137.097656 109.792969 136.289062 109.792969 135.289062 C 109.792969 134.292969 108.984375 133.484375 107.988281 133.484375 M 113.492188 136.492188 C 113.492188 129.828125 108.09375 124.429688 101.429688 124.429688 C 94.769531 124.429688 89.367188 129.828125 89.367188 136.492188 C 89.367188 143.152344 94.769531 148.554688 101.429688 148.554688 C 108.09375 148.554688 113.492188 143.152344 113.492188 136.492188 M 118.472656 123.160156 L 113.601562 126.582031 C 114.214844 127.332031 114.765625 128.152344 115.242188 129.035156 C 117.925781 133.992188 117.667969 139.726562 115.058594 144.261719 L 118.09375 145.9375 C 118.40625 145.613281 118.777344 145.332031 119.210938 145.125 C 121.148438 144.179688 123.484375 144.984375 124.425781 146.921875 C 125.371094 148.859375 124.566406 151.195312 122.628906 152.136719 C 120.691406 153.082031 118.355469 152.277344 117.410156 150.339844 C 116.992188 149.476562 116.917969 148.535156 117.136719 147.671875 L 113.960938 145.917969 C 112.667969 147.621094 111 149.082031 109 150.179688 C 101.429688 154.320312 91.933594 151.542969 87.789062 143.96875 C 87.679688 143.773438 87.578125 143.570312 87.480469 143.371094 L 84.210938 144.898438 C 84.292969 145.34375 84.296875 145.808594 84.214844 146.28125 C 83.839844 148.402344 81.8125 149.820312 79.691406 149.441406 C 77.570312 149.066406 76.152344 147.042969 76.527344 144.921875 C 76.90625 142.796875 78.929688 141.382812 81.050781 141.757812 C 82 141.925781 82.804688 142.421875 83.371094 143.105469 L 86.71875 141.542969 C 84.984375 136.503906 85.972656 130.992188 89.144531 126.898438 C 89.800781 126.046875 89.894531 124.890625 89.378906 123.945312 L 86.246094 118.214844 C 86.117188 117.984375 85.816406 117.882812 85.582031 118.007812 C 85.414062 118.101562 85.222656 118.117188 85.050781 118.066406 C 84.878906 118.015625 84.722656 117.898438 84.632812 117.730469 C 84.539062 117.558594 84.523438 117.371094 84.574219 117.195312 C 84.625 117.027344 84.742188 116.871094 84.910156 116.78125 L 93.839844 111.894531 C 94.167969 111.714844 94.585938 111.804688 94.789062 112.117188 C 94.902344 112.296875 94.925781 112.507812 94.871094 112.691406 C 94.820312 112.863281 94.703125 113.019531 94.535156 113.109375 C 94.417969 113.175781 94.339844 113.277344 94.304688 113.398438 C 94.269531 113.515625 94.28125 113.648438 94.34375 113.765625 L 94.695312 114.40625 C 94.769531 114.546875 94.722656 114.722656 94.582031 114.796875 L 93.335938 115.476562 C 93.207031 115.546875 93.117188 115.664062 93.082031 115.796875 C 93.042969 115.925781 93.054688 116.070312 93.125 116.199219 C 93.265625 116.457031 93.589844 116.550781 93.847656 116.410156 L 95.09375 115.730469 C 95.230469 115.652344 95.40625 115.703125 95.480469 115.84375 L 95.792969 116.410156 C 95.867188 116.546875 95.816406 116.722656 95.675781 116.796875 L 94.429688 117.480469 C 94.253906 117.578125 94.15625 117.757812 94.15625 117.945312 C 94.15625 118.03125 94.175781 118.121094 94.21875 118.199219 C 94.359375 118.460938 94.683594 118.554688 94.941406 118.414062 L 96.1875 117.730469 C 96.328125 117.65625 96.5 117.707031 96.578125 117.847656 L 96.886719 118.410156 C 96.960938 118.550781 96.910156 118.722656 96.773438 118.800781 L 95.527344 119.480469 C 95.398438 119.550781 95.308594 119.667969 95.273438 119.800781 C 95.234375 119.929688 95.246094 120.078125 95.316406 120.203125 C 95.457031 120.460938 95.78125 120.554688 96.039062 120.414062 L 97.304688 119.722656 C 97.433594 119.652344 97.59375 119.691406 97.675781 119.808594 C 98.230469 120.566406 99.148438 120.988281 100.101562 120.902344 C 104.175781 120.539062 108.265625 121.796875 111.433594 124.40625 L 116.730469 120.683594 C 116.492188 120.035156 116.359375 119.335938 116.359375 118.601562 C 116.359375 115.308594 119.03125 112.632812 122.328125 112.632812 C 125.621094 112.632812 128.292969 115.308594 128.292969 118.601562 C 128.292969 121.898438 125.621094 124.570312 122.328125 124.570312 C 120.859375 124.570312 119.511719 124.039062 118.472656 123.160156 M 111.179688 137.867188 C 111.441406 137.632812 111.859375 137.855469 111.800781 138.203125 C 110.984375 143.195312 106.652344 147.003906 101.429688 147.003906 C 95.625 147.003906 90.921875 142.296875 90.921875 136.492188 L 90.921875 136.488281 C 90.921875 136.195312 91.039062 135.910156 91.25 135.707031 C 93.59375 133.421875 97.589844 135.042969 101.523438 136.667969 C 105.308594 138.230469 109.039062 139.792969 111.179688 137.867188 " fill-opacity="1" fill-rule="evenodd"/></g><path fill="#07bcd4" d="M 108.589844 138.761719 C 106.566406 138.761719 104.058594 137.714844 101.523438 136.667969 C 99.027344 135.636719 96.507812 134.609375 94.398438 134.574219 C 96.507812 134.605469 99.03125 135.636719 101.527344 136.667969 C 104.0625 137.714844 106.574219 138.761719 108.597656 138.761719 C 108.644531 138.761719 108.691406 138.757812 108.738281 138.757812 C 108.691406 138.757812 108.640625 138.761719 108.589844 138.761719 " fill-opacity="1" fill-rule="nonzero"/><path fill="#07bcd4" d="M 106.871094 139.972656 C 104.597656 139.972656 102.105469 138.789062 99.699219 137.605469 C 97.296875 136.417969 94.984375 135.234375 93.074219 135.234375 C 92.414062 135.234375 91.804688 135.375 91.253906 135.707031 C 92.085938 134.894531 93.128906 134.574219 94.304688 134.574219 C 94.335938 134.574219 94.367188 134.574219 94.398438 134.574219 C 96.507812 134.609375 99.027344 135.636719 101.523438 136.667969 C 104.058594 137.714844 106.566406 138.761719 108.589844 138.761719 C 108.640625 138.761719 108.691406 138.757812 108.738281 138.757812 C 109.679688 138.734375 110.511719 138.472656 111.183594 137.867188 C 109.921875 139.402344 108.449219 139.972656 106.871094 139.972656 " fill-opacity="1" fill-rule="nonzero"/><g fill="#ffffff" fill-opacity="1"><g transform="translate(102.806743, 240.53736)"><g><path d="M 7.671875 -12.796875 C 7.972656 -12.796875 8.265625 -12.851562 8.546875 -12.96875 C 8.816406 -13.082031 9.054688 -13.242188 9.265625 -13.453125 C 9.484375 -13.660156 9.648438 -13.90625 9.765625 -14.1875 C 9.890625 -14.457031 9.953125 -14.75 9.953125 -15.0625 C 9.953125 -15.363281 9.890625 -15.660156 9.765625 -15.953125 C 9.648438 -16.222656 9.484375 -16.460938 9.265625 -16.671875 C 9.054688 -16.878906 8.816406 -17.039062 8.546875 -17.15625 C 8.265625 -17.28125 7.972656 -17.34375 7.671875 -17.34375 C 7.359375 -17.34375 7.0625 -17.28125 6.78125 -17.15625 C 6.507812 -17.039062 6.269531 -16.878906 6.0625 -16.671875 C 5.851562 -16.460938 5.691406 -16.222656 5.578125 -15.953125 C 5.453125 -15.660156 5.390625 -15.363281 5.390625 -15.0625 C 5.390625 -14.75 5.453125 -14.457031 5.578125 -14.1875 C 5.691406 -13.90625 5.851562 -13.660156 6.0625 -13.453125 C 6.269531 -13.242188 6.507812 -13.082031 6.78125 -12.96875 C 7.0625 -12.851562 7.359375 -12.796875 7.671875 -12.796875 Z M 16.09375 -4.578125 L 14.046875 -4.578125 L 14.046875 -10.484375 C 13.898438 -11.878906 13.140625 -12.648438 11.765625 -12.796875 C 10.367188 -12.648438 9.609375 -11.878906 9.484375 -10.484375 L 9.484375 -0.109375 C 9.367188 0.992188 8.769531 1.597656 7.6875 1.703125 C 6.5625 1.617188 5.945312 1.015625 5.84375 -0.109375 L 5.84375 -7.9375 C 5.707031 -9.320312 4.953125 -10.09375 3.578125 -10.25 C 2.179688 -10.101562 1.421875 -9.332031 1.296875 -7.9375 L 1.296875 -0.109375 C 1.316406 1.679688 1.9375 3.1875 3.15625 4.40625 C 4.382812 5.625 5.894531 6.242188 7.6875 6.265625 C 9.445312 6.242188 10.9375 5.617188 12.15625 4.390625 C 13.351562 3.191406 13.976562 1.726562 14.03125 0 L 16.09375 0 Z M 16.09375 -4.578125 "/></g></g></g><g fill="#ffffff" fill-opacity="1"><g transform="translate(118.878254, 240.53736)"><g><path d="M 11.96875 -4.578125 L 8.328125 -4.578125 L 8.328125 -6.390625 C 8.410156 -7.492188 9.007812 -8.109375 10.125 -8.234375 C 11.238281 -8.109375 11.851562 -7.492188 11.96875 -6.390625 Z M 16.546875 -4.578125 L 16.546875 -6.390625 C 16.515625 -8.160156 15.882812 -9.664062 14.65625 -10.90625 C 13.414062 -12.132812 11.90625 -12.769531 10.125 -12.8125 C 8.332031 -12.769531 6.828125 -12.132812 5.609375 -10.90625 C 4.367188 -9.664062 3.742188 -8.160156 3.734375 -6.390625 L 3.734375 -4.578125 L -1.171875 -4.578125 L -1.171875 0 L 18.953125 0 L 18.953125 -4.578125 Z M 16.546875 -4.578125 "/></g></g></g><g fill="#ffffff" fill-opacity="1"><g transform="translate(137.81039, 240.53736)"><g><path d="M 17.125 -10.953125 C 18.363281 -9.722656 19 -8.210938 19.03125 -6.421875 C 19 -4.640625 18.363281 -3.128906 17.125 -1.890625 C 15.894531 -0.660156 14.390625 -0.03125 12.609375 0 L -1.171875 0 L -1.171875 -4.578125 L 12.609375 -4.578125 C 13.710938 -4.703125 14.320312 -5.316406 14.4375 -6.421875 C 14.320312 -7.535156 13.710938 -8.140625 12.609375 -8.234375 L 6.015625 -8.234375 C 4.617188 -8.390625 3.863281 -9.15625 3.75 -10.53125 C 3.863281 -11.9375 4.617188 -12.695312 6.015625 -12.8125 L 12.609375 -12.8125 C 14.390625 -12.800781 15.894531 -12.179688 17.125 -10.953125 Z M 17.125 -10.953125 "/></g></g></g><g fill="#ffffff" fill-opacity="1"><g transform="translate(158.146832, 240.53736)"><g><path d="M 5.84375 -4.578125 L 5.84375 -10.515625 C 5.707031 -11.890625 4.953125 -12.648438 3.578125 -12.796875 C 2.179688 -12.648438 1.421875 -11.890625 1.296875 -10.515625 L 1.296875 4 C 1.421875 5.394531 2.179688 6.15625 3.578125 6.28125 C 4.953125 6.15625 5.707031 5.394531 5.84375 4 L 5.84375 0 L 7.828125 0 L 7.828125 -4.578125 Z M 5.84375 -4.578125 "/></g></g></g><g fill="#ffffff" fill-opacity="1"><g transform="translate(165.909533, 240.53736)"><g><path d="M 8.265625 -6.40625 C 8.265625 -5.769531 8.179688 -5.160156 8.015625 -4.578125 L 8.015625 -4.546875 L 8 -4.53125 C 7.695312 -3.550781 7.171875 -2.675781 6.421875 -1.90625 C 5.210938 -0.664062 3.707031 -0.03125 1.90625 0 L -1.171875 0 L -1.171875 -4.578125 L 1.90625 -4.578125 C 2.976562 -4.691406 3.578125 -5.253906 3.703125 -6.265625 C 3.710938 -6.316406 3.71875 -6.363281 3.71875 -6.40625 L 3.71875 -16.84375 C 3.726562 -16.945312 3.738281 -17.050781 3.75 -17.15625 C 3.96875 -18.351562 4.71875 -19.007812 6 -19.125 C 7.394531 -19 8.148438 -18.238281 8.265625 -16.84375 Z M 8.265625 -6.40625 "/></g></g></g><g fill="#ffffff" fill-opacity="1"><g transform="translate(175.479623, 240.53736)"><g><path d="M 3.578125 -19.09375 C 2.179688 -18.957031 1.421875 -18.203125 1.296875 -16.828125 L 1.296875 -2.28125 C 1.421875 -0.882812 2.179688 -0.125 3.578125 0 C 4.953125 -0.125 5.707031 -0.882812 5.84375 -2.28125 L 5.84375 -16.828125 C 5.707031 -18.203125 4.953125 -18.957031 3.578125 -19.09375 Z M 3.578125 -19.09375 "/></g></g></g><g fill="#ffffff" fill-opacity="1"><g transform="translate(182.631186, 240.53736)"><g><path d="M 15.34375 -6.40625 C 15.300781 -8.195312 14.660156 -9.710938 13.421875 -10.953125 C 12.191406 -12.171875 10.691406 -12.789062 8.921875 -12.8125 L 5.453125 -12.8125 C 4.054688 -12.6875 3.300781 -11.925781 3.1875 -10.53125 C 3.300781 -9.15625 4.054688 -8.390625 5.453125 -8.234375 L 8.921875 -8.234375 C 10.015625 -8.140625 10.625 -7.53125 10.75 -6.40625 L 10.75 -4.578125 L 3.59375 -4.578125 C 2.1875 -4.453125 1.421875 -3.691406 1.296875 -2.296875 C 1.421875 -0.921875 2.1875 -0.15625 3.59375 0 L 17.21875 0 L 17.21875 -4.578125 L 15.34375 -4.578125 Z M 15.34375 -6.40625 "/></g></g></g><g fill="#ffffff" fill-opacity="1"><g transform="translate(199.833949, 240.53736)"><g><path d="M 3.75 1.734375 C 3.4375 1.734375 3.132812 1.796875 2.84375 1.921875 C 2.570312 2.035156 2.332031 2.195312 2.125 2.40625 C 1.914062 2.625 1.753906 2.867188 1.640625 3.140625 C 1.515625 3.421875 1.453125 3.710938 1.453125 4.015625 C 1.453125 4.328125 1.515625 4.625 1.640625 4.90625 C 1.753906 5.175781 1.914062 5.414062 2.125 5.625 C 2.332031 5.832031 2.570312 6 2.84375 6.125 C 3.132812 6.238281 3.4375 6.296875 3.75 6.296875 C 4.050781 6.296875 4.34375 6.238281 4.625 6.125 C 4.894531 6 5.140625 5.832031 5.359375 5.625 C 5.566406 5.414062 5.726562 5.175781 5.84375 4.90625 C 5.957031 4.625 6.015625 4.328125 6.015625 4.015625 C 6.015625 3.710938 5.957031 3.421875 5.84375 3.140625 C 5.726562 2.867188 5.566406 2.625 5.359375 2.40625 C 5.140625 2.195312 4.894531 2.035156 4.625 1.921875 C 4.34375 1.796875 4.050781 1.734375 3.75 1.734375 Z M 8.296875 -4.578125 L 8.296875 -10.5 C 8.160156 -11.894531 7.398438 -12.664062 6.015625 -12.8125 C 4.617188 -12.664062 3.863281 -11.894531 3.75 -10.5 L 3.75 -4.578125 L -1.171875 -4.578125 L -1.171875 0 L 12.328125 0 L 12.328125 -4.578125 Z M 8.296875 -4.578125 "/></g></g></g><g fill="#ffffff" fill-opacity="1"><g transform="translate(212.147643, 240.53736)"><g><path d="M 8.328125 -4.578125 L 8.328125 -6.390625 C 8.453125 -7.492188 9.0625 -8.109375 10.15625 -8.234375 L 13.828125 -8.234375 C 15.222656 -8.347656 15.984375 -9.101562 16.109375 -10.5 C 15.984375 -11.882812 15.222656 -12.65625 13.828125 -12.8125 L 10.15625 -12.8125 C 8.382812 -12.769531 6.878906 -12.132812 5.640625 -10.90625 C 4.410156 -9.675781 3.78125 -8.171875 3.75 -6.390625 L 3.75 -4.578125 L -1.171875 -4.578125 L -1.171875 0 L 14.71875 0 C 16.113281 -0.125 16.867188 -0.882812 16.984375 -2.28125 C 16.867188 -3.65625 16.113281 -4.421875 14.71875 -4.578125 Z M 8.328125 -4.578125 "/></g></g></g><g fill="#ffffff" fill-opacity="1"><g transform="translate(230.442645, 240.53736)"><g><path d="M 12.234375 -19.359375 C 10.867188 -19.867188 9.820312 -19.503906 9.09375 -18.265625 L 1.953125 -3.359375 C 1.421875 -2.003906 1.78125 -0.960938 3.03125 -0.234375 C 4.351562 0.253906 5.394531 -0.109375 6.15625 -1.328125 L 13.3125 -16.25 C 13.800781 -17.570312 13.441406 -18.609375 12.234375 -19.359375 Z M 12.234375 -19.359375 "/></g></g></g><g fill="#ffffff" fill-opacity="1"><g transform="translate(245.655968, 240.53736)"><g><path d="M 8.90625 -12.8125 C 10.6875 -12.800781 12.191406 -12.179688 13.421875 -10.953125 C 14.660156 -9.722656 15.296875 -8.210938 15.328125 -6.421875 C 15.296875 -4.640625 14.660156 -3.128906 13.421875 -1.890625 C 12.191406 -0.660156 10.6875 -0.03125 8.90625 0 L 3.578125 0 C 2.179688 -0.15625 1.421875 -0.921875 1.296875 -2.296875 C 1.421875 -3.703125 2.179688 -4.460938 3.578125 -4.578125 L 8.90625 -4.578125 C 10.007812 -4.703125 10.625 -5.316406 10.75 -6.421875 C 10.625 -7.535156 10.007812 -8.140625 8.90625 -8.234375 L 5.453125 -8.234375 C 4.054688 -8.390625 3.296875 -9.15625 3.171875 -10.53125 C 3.296875 -11.9375 4.054688 -12.695312 5.453125 -12.8125 Z M 8.90625 -12.8125 "/></g></g></g><g fill="#47a9f2" fill-opacity="1"><g transform="translate(142.883091, 256.037198)"><g><path d="M 2.75 4.328125 C 2.582031 4.328125 2.425781 4.359375 2.28125 4.421875 C 2.144531 4.484375 2.019531 4.566406 1.90625 4.671875 C 1.789062 4.785156 1.703125 4.914062 1.640625 5.0625 C 1.578125 5.207031 1.546875 5.359375 1.546875 5.515625 C 1.546875 5.679688 1.578125 5.835938 1.640625 5.984375 C 1.703125 6.128906 1.789062 6.257812 1.90625 6.375 C 2.019531 6.476562 2.144531 6.5625 2.28125 6.625 C 2.425781 6.6875 2.582031 6.71875 2.75 6.71875 C 2.90625 6.71875 3.0625 6.6875 3.21875 6.625 C 3.351562 6.5625 3.476562 6.476562 3.59375 6.375 C 3.707031 6.257812 3.796875 6.128906 3.859375 5.984375 C 3.910156 5.835938 3.9375 5.679688 3.9375 5.515625 C 3.9375 5.359375 3.910156 5.207031 3.859375 5.0625 C 3.796875 4.914062 3.707031 4.785156 3.59375 4.671875 C 3.476562 4.566406 3.351562 4.484375 3.21875 4.421875 C 3.0625 4.359375 2.90625 4.328125 2.75 4.328125 Z M 5.34375 4.328125 C 5.1875 4.328125 5.035156 4.359375 4.890625 4.421875 C 4.742188 4.484375 4.613281 4.566406 4.5 4.671875 C 4.394531 4.785156 4.3125 4.914062 4.25 5.0625 C 4.1875 5.207031 4.15625 5.359375 4.15625 5.515625 C 4.15625 5.679688 4.1875 5.835938 4.25 5.984375 C 4.3125 6.128906 4.394531 6.257812 4.5 6.375 C 4.613281 6.476562 4.742188 6.5625 4.890625 6.625 C 5.035156 6.6875 5.1875 6.71875 5.34375 6.71875 C 5.507812 6.71875 5.664062 6.6875 5.8125 6.625 C 5.957031 6.5625 6.085938 6.476562 6.203125 6.375 C 6.304688 6.257812 6.390625 6.128906 6.453125 5.984375 C 6.515625 5.835938 6.546875 5.679688 6.546875 5.515625 C 6.546875 5.359375 6.515625 5.207031 6.453125 5.0625 C 6.390625 4.914062 6.304688 4.785156 6.203125 4.671875 C 6.085938 4.566406 5.957031 4.484375 5.8125 4.421875 C 5.664062 4.359375 5.507812 4.328125 5.34375 4.328125 Z M 7.390625 -2.421875 L 6.203125 -2.421875 C 5.523438 -2.347656 5.132812 -2 5.03125 -1.375 L 5.015625 -1.359375 L 5.015625 -1.328125 C 5.003906 -1.285156 5 -1.25 5 -1.21875 L 5 -0.0625 C 4.9375 0.519531 4.617188 0.835938 4.046875 0.890625 C 3.460938 0.847656 3.144531 0.53125 3.09375 -0.0625 L 3.09375 -3.125 C 3.019531 -3.851562 2.617188 -4.253906 1.890625 -4.328125 C 1.148438 -4.253906 0.75 -3.851562 0.6875 -3.125 L 0.6875 -0.0625 C 0.695312 0.875 1.023438 1.664062 1.671875 2.3125 C 2.316406 2.957031 3.109375 3.285156 4.046875 3.296875 C 4.972656 3.285156 5.757812 2.957031 6.40625 2.3125 C 7.039062 1.675781 7.367188 0.90625 7.390625 0 L 10.28125 0 L 10.28125 -2.421875 Z M 7.390625 -2.421875 "/></g></g></g><g fill="#47a9f2" fill-opacity="1"><g transform="translate(153.150646, 256.037198)"><g><path d="M 10.234375 -3.484375 L 10.234375 -3.5 C 10.171875 -4.164062 9.8125 -4.523438 9.15625 -4.578125 L 4.484375 -4.578125 L 4.484375 -2.421875 L 10.234375 -2.421875 Z M 14.046875 -2.421875 L 14.046875 0 L -0.625 0 L -0.625 -2.421875 L 2.09375 -2.421875 L 2.09375 -9.296875 C 2.101562 -9.453125 2.132812 -9.59375 2.1875 -9.71875 L 2.203125 -9.796875 C 2.378906 -10.203125 2.742188 -10.4375 3.296875 -10.5 C 3.335938 -10.488281 3.378906 -10.484375 3.421875 -10.484375 C 3.890625 -10.398438 4.203125 -10.164062 4.359375 -9.78125 C 4.421875 -9.644531 4.460938 -9.484375 4.484375 -9.296875 L 4.484375 -6.984375 L 9.15625 -6.984375 C 10.125 -6.972656 10.941406 -6.632812 11.609375 -5.96875 C 12.285156 -5.300781 12.632812 -4.476562 12.65625 -3.5 L 12.65625 -2.421875 Z M 14.046875 -2.421875 "/></g></g></g><g fill="#47a9f2" fill-opacity="1"><g transform="translate(167.190515, 256.037198)"><g><path d="M 7.765625 -2.421875 L 4.390625 -2.421875 L 4.390625 -3.375 C 4.460938 -3.957031 4.785156 -4.28125 5.359375 -4.34375 L 7.296875 -4.34375 C 8.035156 -4.40625 8.4375 -4.804688 8.5 -5.546875 C 8.4375 -6.265625 8.035156 -6.664062 7.296875 -6.75 L 5.359375 -6.75 C 4.421875 -6.738281 3.628906 -6.40625 2.984375 -5.75 C 2.328125 -5.101562 1.988281 -4.3125 1.96875 -3.375 L 1.96875 -2.421875 L -0.625 -2.421875 L -0.625 0 L 11 0 L 11 -2.421875 Z M 7.765625 -2.421875 "/></g></g></g><g fill="#47a9f2" fill-opacity="1"><g transform="translate(178.171381, 256.037198)"><g><path d="M 6.3125 -2.421875 L 4.390625 -2.421875 L 4.390625 -3.375 C 4.429688 -3.957031 4.75 -4.28125 5.34375 -4.34375 C 5.925781 -4.28125 6.25 -3.957031 6.3125 -3.375 Z M 8.734375 -2.421875 L 8.734375 -3.375 C 8.710938 -4.3125 8.378906 -5.101562 7.734375 -5.75 C 7.078125 -6.40625 6.28125 -6.738281 5.34375 -6.75 C 4.394531 -6.738281 3.597656 -6.40625 2.953125 -5.75 C 2.304688 -5.101562 1.976562 -4.3125 1.96875 -3.375 L 1.96875 -2.421875 L -0.625 -2.421875 L -0.625 0 L 10 0 L 10 -2.421875 Z M 8.734375 -2.421875 "/></g></g></g><g fill="#47a9f2" fill-opacity="1"><g transform="translate(188.157727, 256.037198)"><g><path d="M 4.359375 -3.375 C 4.359375 -3.039062 4.3125 -2.722656 4.21875 -2.421875 L 4.21875 -2.390625 C 4.0625 -1.878906 3.785156 -1.421875 3.390625 -1.015625 C 2.742188 -0.359375 1.953125 -0.0195312 1.015625 0 L -0.625 0 L -0.625 -2.421875 L 1.015625 -2.421875 C 1.578125 -2.472656 1.890625 -2.769531 1.953125 -3.3125 C 1.960938 -3.332031 1.96875 -3.351562 1.96875 -3.375 L 1.96875 -8.890625 C 1.96875 -8.941406 1.972656 -8.992188 1.984375 -9.046875 C 2.097656 -9.679688 2.488281 -10.03125 3.15625 -10.09375 C 3.894531 -10.03125 4.296875 -9.628906 4.359375 -8.890625 Z M 4.359375 -3.375 "/></g></g></g><g fill="#47a9f2" fill-opacity="1"><g transform="translate(193.20577, 256.037198)"><g><path d="M 1.890625 -10.078125 C 1.148438 -10.003906 0.75 -9.601562 0.6875 -8.875 L 0.6875 -1.203125 C 0.75 -0.460938 1.148438 -0.0625 1.890625 0 C 2.617188 -0.0625 3.019531 -0.460938 3.09375 -1.203125 L 3.09375 -8.875 C 3.019531 -9.601562 2.617188 -10.003906 1.890625 -10.078125 Z M 1.890625 -10.078125 "/></g></g></g><g fill="#47a9f2" fill-opacity="1"><g transform="translate(196.978085, 256.037198)"><g><path d="M 8.09375 -3.375 C 8.070312 -4.320312 7.734375 -5.125 7.078125 -5.78125 C 6.429688 -6.425781 5.640625 -6.75 4.703125 -6.75 L 2.875 -6.75 C 2.144531 -6.6875 1.75 -6.289062 1.6875 -5.5625 C 1.75 -4.832031 2.144531 -4.425781 2.875 -4.34375 L 4.703125 -4.34375 C 5.285156 -4.289062 5.609375 -3.96875 5.671875 -3.375 L 5.671875 -2.421875 L 1.890625 -2.421875 C 1.148438 -2.347656 0.75 -1.945312 0.6875 -1.21875 C 0.75 -0.488281 1.148438 -0.0820312 1.890625 0 L 9.09375 0 L 9.09375 -2.421875 L 8.09375 -2.421875 Z M 8.09375 -3.375 "/></g></g></g><g fill="#47a9f2" fill-opacity="1"><g transform="translate(206.052216, 256.037198)"><g><path d="M 1.96875 0.921875 C 1.8125 0.921875 1.65625 0.953125 1.5 1.015625 C 1.363281 1.078125 1.238281 1.160156 1.125 1.265625 C 1.007812 1.378906 0.921875 1.507812 0.859375 1.65625 C 0.796875 1.800781 0.765625 1.957031 0.765625 2.125 C 0.765625 2.28125 0.796875 2.429688 0.859375 2.578125 C 0.921875 2.734375 1.007812 2.863281 1.125 2.96875 C 1.238281 3.082031 1.363281 3.171875 1.5 3.234375 C 1.65625 3.285156 1.8125 3.3125 1.96875 3.3125 C 2.132812 3.3125 2.289062 3.285156 2.4375 3.234375 C 2.582031 3.171875 2.710938 3.082031 2.828125 2.96875 C 2.929688 2.863281 3.015625 2.734375 3.078125 2.578125 C 3.140625 2.429688 3.171875 2.28125 3.171875 2.125 C 3.171875 1.957031 3.140625 1.800781 3.078125 1.65625 C 3.015625 1.507812 2.929688 1.378906 2.828125 1.265625 C 2.710938 1.160156 2.582031 1.078125 2.4375 1.015625 C 2.289062 0.953125 2.132812 0.921875 1.96875 0.921875 Z M 4.375 -2.421875 L 4.375 -5.546875 C 4.300781 -6.273438 3.898438 -6.675781 3.171875 -6.75 C 2.441406 -6.675781 2.039062 -6.273438 1.96875 -5.546875 L 1.96875 -2.421875 L -0.625 -2.421875 L -0.625 0 L 6.5 0 L 6.5 -2.421875 Z M 4.375 -2.421875 "/></g></g></g><g fill="#47a9f2" fill-opacity="1"><g transform="translate(212.547457, 256.037198)"><g><path d="M 4.390625 -2.421875 L 4.390625 -3.375 C 4.460938 -3.957031 4.785156 -4.28125 5.359375 -4.34375 L 7.296875 -4.34375 C 8.035156 -4.40625 8.4375 -4.804688 8.5 -5.546875 C 8.4375 -6.265625 8.035156 -6.664062 7.296875 -6.75 L 5.359375 -6.75 C 4.421875 -6.738281 3.628906 -6.40625 2.984375 -5.75 C 2.328125 -5.101562 1.988281 -4.3125 1.96875 -3.375 L 1.96875 -2.421875 L -0.625 -2.421875 L -0.625 0 L 7.765625 0 C 8.503906 -0.0625 8.90625 -0.460938 8.96875 -1.203125 C 8.90625 -1.929688 8.503906 -2.335938 7.765625 -2.421875 Z M 4.390625 -2.421875 "/></g></g></g></svg>