<?xml version="1.0" standalone="no"?>
<!DOCTYPE svg PUBLIC "-//W3C//DTD SVG 20010904//EN"
 "http://www.w3.org/TR/2001/REC-SVG-20010904/DTD/svg10.dtd">
<svg version="1.0" xmlns="http://www.w3.org/2000/svg"
 width="336.000000pt" height="336.000000pt" viewBox="0 0 336.000000 336.000000"
 preserveAspectRatio="xMidYMid meet">

<g transform="translate(0.000000,336.000000) scale(0.100000,-0.100000)"
fill="#000000" stroke="none">
<path d="M0 1680 l0 -1680 1680 0 1680 0 0 1680 0 1680 -1680 0 -1680 0 0
-1680z m1696 859 c57 -21 115 -53 236 -127 37 -23 115 -65 173 -94 58 -29 105
-59 105 -66 0 -9 -6 -12 -16 -8 -8 3 -13 2 -10 -2 7 -11 -38 -62 -55 -62 -7 0
-96 46 -198 102 -102 56 -251 132 -331 168 -89 40 -145 72 -145 80 -1 43 136
48 241 9z m-208 -105 c91 -30 203 -89 362 -190 178 -114 180 -120 15 -54 -82
33 -158 65 -167 70 -26 14 -32 12 -14 -5 8 -8 18 -15 21 -15 4 0 30 -21 59
-46 28 -26 99 -83 159 -127 59 -44 107 -82 107 -84 0 -8 -110 56 -211 123
-209 138 -407 225 -543 240 l-70 7 30 24 c28 23 28 24 10 38 -11 8 -26 15 -33
15 -17 0 -17 17 0 23 6 3 54 6 105 6 75 1 109 -4 170 -25z m-298 6 c0 -5 -5
-10 -11 -10 -5 0 -7 5 -4 10 3 6 8 10 11 10 2 0 4 -4 4 -10z m168 -170 c88
-24 172 -66 267 -131 157 -107 165 -133 11 -39 -53 33 -118 71 -144 84 -130
66 -272 89 -385 62 -80 -19 -84 -19 -71 -6 22 22 122 49 184 49 37 1 97 -8
138 -19z m42 -134 c35 -14 96 -45 135 -69 82 -49 219 -156 211 -164 -3 -3 -20
5 -38 19 -67 49 -217 139 -289 172 -85 39 -156 56 -237 57 -43 0 -52 3 -37 10
11 5 58 7 105 5 64 -2 101 -9 150 -30z m-56 -96 c57 -22 258 -149 272 -172 4
-7 -8 -3 -27 9 -120 72 -261 144 -304 154 -56 13 -209 15 -245 4 -15 -5 -20
-4 -16 4 23 37 223 38 320 1z m-43 -136 c74 -22 169 -72 257 -134 87 -61 279
-244 306 -292 13 -22 -20 5 -95 78 -246 239 -455 352 -632 342 -48 -2 -55 -1
-40 10 24 17 139 15 204 -4z m21 -123 c123 -48 283 -174 390 -309 66 -83 80
-124 16 -47 -155 186 -363 322 -520 341 -50 6 -104 -4 -178 -33 -32 -13 26 40
65 59 52 24 148 20 227 -11z m7 -217 c133 -67 324 -311 270 -345 -8 -5 -27 -9
-44 -9 -24 0 -46 16 -110 78 l-80 79 -98 18 c-87 15 -99 20 -108 42 -13 35
-11 137 3 151 22 22 110 14 167 -14z"/>
</g>
</svg>
